<?xml version="1.0" encoding="UTF-8"?>
<svg width="39px" height="39px" viewBox="0 0 39 39" version="1.1" xmlns="http://www.w3.org/2000/svg" xmlns:xlink="http://www.w3.org/1999/xlink">
    <title>Bills icon@3x</title>
    <defs>
        <filter id="filter-1">
            <feColorMatrix in="SourceGraphic" type="matrix" values="0 0 0 0 1.000000 0 0 0 0 1.000000 0 0 0 0 1.000000 0 0 0 1.000000 0"></feColorMatrix>
        </filter>
    </defs>
    <g id="2.-Home" stroke="none" stroke-width="1" fill="none" fill-rule="evenodd" opacity="0.07">
        <g id="2.0-Home" transform="translate(-132.000000, -754.000000)">
            <g id="IEBS-Block" transform="translate(31.000000, 598.000000)">
                <g id="Bills" transform="translate(0.000000, 147.000000)">
                    <g id="Bills-icon" transform="translate(97.000000, 5.000000)" filter="url(#filter-1)">
                        <g id="balances">
                            <polygon id="Path_14625" points="0 0 47 0 47 47 0 47"></polygon>
                            <path d="M31.6034483,25.9391379 L31.6034483,29.1724138 C31.5994434,30.5133747 30.5133747,31.5994434 29.1724138,31.6034483 L17.8275862,31.6034483 C16.4868093,31.5990012 15.4009988,30.5131907 15.3965517,29.1724138 L15.3965517,17.8275862 C15.4005566,16.4866253 16.4866253,15.4005566 17.8275862,15.3965517 L29.1724138,15.3965517 C30.5133747,15.4005566 31.5994434,16.4866253 31.6034483,17.8275862 L31.6034483,21.0608621 C31.6008592,21.5086545 31.2408479,21.8722659 30.7931034,21.8793103 C30.5760959,21.881547 30.3674402,21.7957699 30.2147499,21.6415527 C30.0620596,21.4873355 29.9783629,21.2778366 29.9827586,21.0608621 L29.9827586,17.8275862 C29.9787988,17.3816956 29.6183044,17.0212012 29.1724138,17.0172414 L17.8275862,17.0172414 C17.3816956,17.0212012 17.0212012,17.3816956 17.0172414,17.8275862 L17.0172414,29.1724138 C17.0212012,29.6183044 17.3816956,29.9787988 17.8275862,29.9827586 L29.1724138,29.9827586 C29.6183044,29.9787988 29.9787988,29.6183044 29.9827586,29.1724138 L29.9827586,25.9391379 C29.9853477,25.4913455 30.345359,25.1277341 30.7931034,25.1206897 C31.010111,25.118453 31.2187667,25.2042301 31.371457,25.3584473 C31.5241473,25.5126645 31.607844,25.7221634 31.6034483,25.9391379 Z M20.2586207,4.86206897 C20.2638709,4.41672072 20.6236173,4.05697437 21.0689655,4.05172414 C21.5165066,4.05172414 21.8793103,4.41452788 21.8793103,4.86206897 L21.8793103,7.29310345 L25.1206897,7.29310345 L25.1206897,4.86206897 C25.1259399,4.41672072 25.4856862,4.05697437 25.9310345,4.05172414 C26.3785756,4.05172414 26.7413793,4.41452788 26.7413793,4.86206897 L26.7413793,7.29310345 L29.9827586,7.29310345 L29.9827586,4.86206897 C29.9880089,4.41672072 30.3477552,4.05697437 30.7931034,4.05172414 C31.2406445,4.05172414 31.6034483,4.41452788 31.6034483,4.86206897 L31.6034483,7.29310345 L37.2758621,7.29310345 C38.6171913,7.29622231 39.7037777,8.38280866 39.7068966,9.72413793 L39.7068966,15.3965517 L42.137931,15.3965517 C42.5832793,15.401802 42.9430256,15.7615483 42.9482759,16.2068966 C42.9482759,16.6544376 42.5854721,17.0172414 42.137931,17.0172414 L39.7068966,17.0172414 L39.7068966,20.2586207 L42.137931,20.2586207 C42.5832793,20.2638709 42.9430256,20.6236173 42.9482759,21.0689655 C42.9482759,21.5165066 42.5854721,21.8793103 42.137931,21.8793103 L39.7068966,21.8793103 L39.7068966,25.1206897 L42.137931,25.1206897 C42.5832793,25.1259399 42.9430256,25.4856862 42.9482759,25.9310345 C42.9482759,26.3785756 42.5854721,26.7413793 42.137931,26.7413793 L39.7068966,26.7413793 L39.7068966,29.9827586 L42.137931,29.9827586 C42.5832793,29.9880089 42.9430256,30.3477552 42.9482759,30.7931034 C42.9482759,31.2406445 42.5854721,31.6034483 42.137931,31.6034483 L39.7068966,31.6034483 L39.7068966,37.2758621 C39.7037777,38.6171913 38.6171913,39.7037777 37.2758621,39.7068966 L31.6034483,39.7068966 L31.6034483,42.137931 C31.598198,42.5832793 31.2384517,42.9430256 30.7931034,42.9482759 C30.3455624,42.9482759 29.9827586,42.5854721 29.9827586,42.137931 L29.9827586,39.7068966 L26.7413793,39.7068966 L26.7413793,42.137931 C26.7361291,42.5832793 26.3763827,42.9430256 25.9310345,42.9482759 C25.4834934,42.9482759 25.1206897,42.5854721 25.1206897,42.137931 L25.1206897,39.7068966 L21.8793103,39.7068966 L21.8793103,42.137931 C21.8740601,42.5832793 21.5143138,42.9430256 21.0689655,42.9482759 C20.6214244,42.9482759 20.2586207,42.5854721 20.2586207,42.137931 L20.2586207,39.7068966 L17.0172414,39.7068966 L17.0172414,42.137931 C17.0119911,42.5832793 16.6522448,42.9430256 16.2068966,42.9482759 C15.7593555,42.9482759 15.3965517,42.5854721 15.3965517,42.137931 L15.3965517,39.7068966 L9.72413793,39.7068966 C8.38280866,39.7037777 7.29622231,38.6171913 7.29310345,37.2758621 L7.29310345,31.6034483 L4.86206897,31.6034483 C4.41672072,31.598198 4.05697437,31.2384517 4.05172414,30.7931034 C4.05172414,30.3455624 4.41452788,29.9827586 4.86206897,29.9827586 L7.29310345,29.9827586 L7.29310345,26.7413793 L4.86206897,26.7413793 C4.41672072,26.7361291 4.05697437,26.3763827 4.05172414,25.9310345 C4.05172414,25.4834934 4.41452788,25.1206897 4.86206897,25.1206897 L7.29310345,25.1206897 L7.29310345,21.8793103 L4.86206897,21.8793103 C4.41672072,21.8740601 4.05697437,21.5143138 4.05172414,21.0689655 C4.05172414,20.6214244 4.41452788,20.2586207 4.86206897,20.2586207 L7.29310345,20.2586207 L7.29310345,17.0172414 L4.86206897,17.0172414 C4.41672072,17.0119911 4.05697437,16.6522448 4.05172414,16.2068966 C4.05172414,15.7593555 4.41452788,15.3965517 4.86206897,15.3965517 L7.29310345,15.3965517 L7.29310345,9.72413793 C7.29622231,8.38280866 8.38280866,7.29622231 9.72413793,7.29310345 L15.3965517,7.29310345 L15.3965517,4.86206897 C15.401802,4.41672072 15.7615483,4.05697437 16.2068966,4.05172414 C16.6544376,4.05172414 17.0172414,4.41452788 17.0172414,4.86206897 L17.0172414,7.29310345 L20.2586207,7.29310345 L20.2586207,4.86206897 Z M8.9137931,9.72413793 L8.9137931,37.2758621 C8.91688454,37.7221164 9.27788363,38.0831155 9.72413793,38.0862069 L37.2758621,38.0862069 C37.7221164,38.0831155 38.0831155,37.7221164 38.0862069,37.2758621 L38.0862069,9.72413793 C38.0831155,9.27788363 37.7221164,8.91688454 37.2758621,8.9137931 L9.72413793,8.9137931 C9.27788363,8.91688454 8.91688454,9.27788363 8.9137931,9.72413793 Z" id="Path_14626" fill="#333333"></path>
                        </g>
                    </g>
                </g>
            </g>
        </g>
    </g>
</svg>