<?xml version="1.0" encoding="UTF-8"?>
<svg width="36px" height="36px" viewBox="0 0 36 36" version="1.1" xmlns="http://www.w3.org/2000/svg" xmlns:xlink="http://www.w3.org/1999/xlink">
    <title>Expenses icon@3x</title>
    <g id="2.-Home" stroke="none" stroke-width="1" fill="none" fill-rule="evenodd" opacity="0.07">
        <g id="2.0-Home" transform="translate(-294.000000, -608.000000)" fill="#FFFFFF" fill-rule="nonzero">
            <g id="IEBS-Block" transform="translate(31.000000, 598.000000)">
                <g id="Exercise" transform="translate(160.000000, 0.000000)">
                    <g id="Expenses-icon" transform="translate(103.000000, 10.000000)">
                        <path d="M2.07692308,9.36 C1.6945721,9.36 1.38461538,9.68235498 1.38461538,10.08 L1.38461538,12.96 C1.38461538,13.357645 1.6945721,13.68 2.07692308,13.68 L33.9230769,13.68 C34.3054279,13.68 34.6153846,13.357645 34.6153846,12.96 L34.6153846,10.08 C34.6153846,9.68235498 34.3054279,9.36 33.9230769,9.36 L2.07692308,9.36 Z M17.3076923,15.12 L4.84615385,15.12 L4.84615385,24.48 L17.3076923,24.48 L17.3076923,15.12 Z M18.6923077,15.12 L18.6923077,24.48 L31.1538462,24.48 L31.1538462,15.12 L18.6923077,15.12 Z M17.3076923,34.56 L17.3076923,25.92 L4.84615385,25.92 L4.84615385,33.84 C4.84615385,34.237645 5.15611056,34.56 5.53846154,34.56 L17.3076923,34.56 Z M18.6923077,34.56 L30.4615385,34.56 C30.8438894,34.56 31.1538462,34.237645 31.1538462,33.84 L31.1538462,25.92 L18.6923077,25.92 L18.6923077,34.56 Z M32.5384615,15.12 L32.5384615,33.84 C32.5384615,35.0329351 31.6085914,36 30.4615385,36 L5.53846154,36 C4.3914086,36 3.46153846,35.0329351 3.46153846,33.84 L3.46153846,15.12 L2.07692308,15.12 C0.929870135,15.12 0,14.1529351 0,12.96 L0,10.08 C0,8.88706494 0.929870135,7.92 2.07692308,7.92 L33.9230769,7.92 C35.0701299,7.92 36,8.88706494 36,10.08 L36,12.96 C36,14.1529351 35.0701299,15.12 33.9230769,15.12 L32.5384615,15.12 Z M20.5823077,3.1068 C20.3966262,3.27958158 20.1359937,3.33526941 19.8998525,3.25261622 C19.6637113,3.16996303 19.4884896,2.96171922 19.4410418,2.7073387 C19.3935941,2.45295817 19.4812398,2.19168269 19.6705385,2.0232 L21.3064615,0.53424 C21.6850018,0.189863303 22.1708371,2.66453526e-15 22.6737692,2.66453526e-15 L28.7307692,2.66453526e-15 C30.4513486,2.66453526e-15 31.8461538,1.45059741 31.8461538,3.24 C31.8461538,5.02940259 30.4513486,6.48 28.7307692,6.48 L23.5384615,6.48 C23.1561106,6.48 22.8461538,6.15764502 22.8461538,5.76 C22.8461538,5.36235498 23.1561106,5.04 23.5384615,5.04 L28.7307692,5.04 C29.6866467,5.04 30.4615385,4.23411255 30.4615385,3.24 C30.4615385,2.24588745 29.6866467,1.44 28.7307692,1.44 L22.6737692,1.44 C22.5062345,1.44000357 22.3443844,1.50318904 22.2182308,1.61784 L20.5823077,3.1068 Z M13.1538462,5.04 C13.5361971,5.04 13.8461538,5.36235498 13.8461538,5.76 C13.8461538,6.15764502 13.5361971,6.48 13.1538462,6.48 L7.96153846,6.48 C6.24095905,6.48 4.84615385,5.02940259 4.84615385,3.24 C4.84615385,1.45059741 6.24095905,0 7.96153846,0 L12.6339231,0 C13.1368553,0 13.6226905,0.189863303 14.0012308,0.53424 L19.1485385,5.21784 C19.3347838,5.38735537 19.4199244,5.64732916 19.3718888,5.89983174 C19.3238532,6.15233432 19.149939,6.35900455 18.915658,6.44199175 C18.6813771,6.52497895 18.4223222,6.47167539 18.2360769,6.30216 L13.0894615,1.61784 C12.9633079,1.50318904 12.8014578,1.44000357 12.6339231,1.44 L7.96153846,1.44 C7.00566101,1.44 6.23076923,2.24588745 6.23076923,3.24 C6.23076923,4.23411255 7.00566101,5.04 7.96153846,5.04 L13.1538462,5.04 L13.1538462,5.04 Z" id="Path_14560"></path>
                    </g>
                </g>
            </g>
        </g>
    </g>
</svg>