<?xml version="1.0" encoding="UTF-8"?>
<svg width="44px" height="53px" viewBox="0 0 44 53" version="1.1" xmlns="http://www.w3.org/2000/svg" xmlns:xlink="http://www.w3.org/1999/xlink">
    <title>Money_click icon@3x</title>
    <defs>
        <filter id="filter-1">
            <feColorMatrix in="SourceGraphic" type="matrix" values="0 0 0 0 1.000000 0 0 0 0 1.000000 0 0 0 0 1.000000 0 0 0 1.000000 0"></feColorMatrix>
        </filter>
    </defs>
    <g id="2.-Home" stroke="none" stroke-width="1" fill="none" fill-rule="evenodd" opacity="0.0690488688">
        <g id="2.0-Home" transform="translate(-127.000000, -607.000000)">
            <g id="IEBS-Block" transform="translate(31.000000, 598.000000)">
                <g id="Money_click-icon" transform="translate(96.000000, 9.000000)" filter="url(#filter-1)">
                    <g id="Group_215" fill="#1A171B" fill-rule="nonzero">
                        <path d="M20.4621463,28.6978776 C20.4615552,28.2632398 20.1121155,27.9110448 19.680878,27.910449 L6.50234146,27.910449 C4.20188435,27.9080642 2.33758563,26.0290655 2.33521951,23.7104694 L2.33521951,6.20316327 C2.33817693,3.88498953 4.20230278,2.00664896 6.50234146,2.00426531 L23.8726829,2.00426531 C26.1725473,2.00665008 28.0363656,3.88516448 28.0387317,6.20316327 C28.0543033,6.6264027 28.3992465,6.9614128 28.8194634,6.9614128 C29.2396803,6.9614128 29.5846235,6.6264027 29.6001951,6.20316327 C29.5966466,3.01648636 27.0344295,0.434066317 23.8726829,0.430489796 L6.50234146,0.430489796 C3.34059484,0.434066317 0.778377809,3.01648636 0.774829268,6.20316327 L0.774829268,23.7104694 C0.778376621,26.897322 3.34042126,29.4800521 6.50234146,29.4842275 L19.680878,29.4842275 C19.8880718,29.4848 20.0869595,29.4021724 20.2335688,29.2546101 C20.3801781,29.1070478 20.4624325,28.9067056 20.4621463,28.6978776 L20.4621463,28.6978776 Z" id="Path_1569"></path>
                        <path d="M43.8840976,27.2733673 C43.7049872,25.3069352 42.0647008,23.8044347 40.1054634,23.8121429 C39.7716655,23.8130381 39.4394058,23.8577615 39.1170732,23.9451837 C38.4797834,22.6275724 37.15552,21.7889263 35.7011707,21.7819184 C35.0062576,21.7814802 34.3247446,21.974632 33.7319024,22.3400408 C32.5806446,21.3516884 30.9673621,21.1204852 29.5883902,21.7462245 L29.5883902,11.5788776 C29.3401236,9.82552586 27.8503339,8.5230629 26.0930732,8.5230629 C24.3358124,8.5230629 22.8460228,9.82552586 22.5977561,11.5788776 L22.5977561,33.1715102 C20.9754125,32.8305152 19.3125724,32.7285008 17.6611707,32.8686531 C13.8718049,33.2115306 11.2629268,35.0643673 11.1674146,37.4807347 C11.0360133,38.5259189 11.1946337,39.5873581 11.6256585,40.5471633 C11.7962691,40.8300561 12.124948,40.9742563 12.4466341,40.9073469 C14.1057561,40.5687959 17.0977561,40.1447959 18.0636098,40.4606327 C20.2364963,41.371355 22.2341984,42.6588672 23.9660488,44.2647347 C25.821561,45.7844286 27.2853659,46.9850408 28.6096585,46.9850408 L41.8225366,46.9850408 C42.9720504,46.9838496 43.9037867,46.0452504 43.905561,44.8866735 L43.905561,27.5383673 C43.9045361,27.4496381 43.8973642,27.3610894 43.8840976,27.2733673 L43.8840976,27.2733673 Z M42.340878,44.8877551 C42.3408783,45.0270731 42.2858941,45.1606693 42.1880515,45.2590805 C42.0902088,45.3574917 41.9575449,45.4123481 41.8193171,45.4123481 L28.606439,45.4123481 C27.8369756,45.4123481 26.3678049,44.2095714 24.9469268,43.0457347 C23.0723159,41.3098529 20.9032606,39.9278873 18.5433171,38.9658163 C18.0367434,38.8301697 17.5132546,38.7696832 16.9893659,38.7862653 C15.5906048,38.8250222 14.1971421,38.9762094 12.8222439,39.2383878 C12.726126,38.6804205 12.6940776,38.1131535 12.7267317,37.5477959 C12.7879024,36.007551 14.9202927,34.6998571 17.8006829,34.4402653 C19.604097,34.2855218 21.4204589,34.452114 23.1665366,34.9324082 C23.4014732,35.000055 23.6542968,34.9523769 23.8490732,34.8036939 C24.0436637,34.6545997 24.1583064,34.4227068 24.1592195,34.1763469 L24.1592195,11.5799592 C24.1592195,10.7752245 25.048878,10.0948776 26.1016585,10.0948776 C27.0352237,9.98757104 27.8858023,10.6436763 28.0269268,11.5799592 L28.0269268,23.3913878 C28.0266152,23.730455 28.2419776,24.0315407 28.5612503,24.1383946 C28.8805229,24.2452486 29.2317985,24.1338049 29.4327805,23.861898 C29.8537287,23.2906853 30.5184815,22.9544902 31.224452,22.95577 C31.9304226,22.9570497 32.5939712,23.2956527 33.012878,23.8683878 C33.1456012,24.0487003 33.3482085,24.1635401 33.5700234,24.1841831 C33.7918383,24.2048261 34.0118839,24.1293202 34.175122,23.976551 C34.5876872,23.5829236 35.1341438,23.3634689 35.7022439,23.3632653 C36.7549839,23.3676929 37.6635746,24.1081191 37.8882927,25.1447143 C37.9399393,25.3880505 38.1026685,25.5924623 38.3271719,25.6960112 C38.5516752,25.7995602 38.8115308,25.7900594 39.028,25.6703878 C39.6917074,25.301386 40.4957267,25.2965062 41.1637952,25.6574249 C41.8318637,26.0183436 42.2729561,26.6958851 42.3355122,27.4572449 C42.3393019,27.4841276 42.3414523,27.5112193 42.3419512,27.5383673 L42.3419512,44.8877551 L42.340878,44.8877551 Z" id="Path_1570"></path>
                        <path d="M43.1210732,48.018 C42.9137806,48.0177124 42.7148961,48.1005811 42.568318,48.2483149 C42.4217399,48.3960488 42.3395195,48.5965015 42.3398049,48.8054286 L42.3398049,50.0687755 C42.3392139,50.4604027 42.0243683,50.7777309 41.6358049,50.7783265 L28.6321951,50.7783265 C28.2438759,50.7771387 27.9293736,50.4601567 27.9281951,50.0687755 L27.9281951,48.8054286 C27.9387942,48.5173425 27.7923492,48.2464481 27.5464268,48.0992326 C27.3005044,47.9520171 26.9944224,47.9520171 26.7485,48.0992326 C26.5025776,48.2464481 26.3561326,48.5173425 26.3667317,48.8054286 L26.3667317,50.0687755 C26.367915,51.3287303 27.3810242,52.3498278 28.631122,52.3510204 L41.6390244,52.3510204 C42.8891221,52.3498278 43.9022314,51.3287303 43.9034266,50.0687755 L43.9034266,48.8054286 C43.9045674,48.5960477 43.8224779,48.3949219 43.6754785,48.2469666 C43.5284791,48.0990113 43.3288142,48.0165508 43.1210732,48.018 L43.1210732,48.018 Z" id="Path_1571"></path>
                        <path d="M15.1810732,24.3161837 C15.6123106,24.3155879 15.9617503,23.9633929 15.9623415,23.5287551 L15.9623415,22.4006122 C18.0161004,22.1331676 19.5752643,20.4055713 19.6454634,18.3196122 C19.6454634,16.3131837 18.4724878,14.1704694 15.1821463,14.1704694 C12.7932683,14.1704694 12.2920976,12.7708367 12.2920976,11.5961837 C12.3915263,10.0842503 13.6811963,8.93548801 15.1821463,9.02189796 C16.3358939,8.99100713 17.3988265,9.64991817 17.8919024,10.7016735 C18.0670961,11.0887628 18.5156854,11.2655861 18.90495,11.1009929 C19.2942147,10.9363997 19.4833606,10.4899222 19.3320976,10.0927143 C18.7257836,8.70574462 17.4521175,7.73243239 15.9634146,7.51842857 L15.9634146,6.38163265 C15.9740137,6.09354654 15.8275687,5.82265219 15.5816463,5.67543668 C15.3357239,5.52822117 15.0296419,5.52822117 14.7837195,5.67543668 C14.5377971,5.82265219 14.3913521,6.09354654 14.4019512,6.38163265 L14.4019512,7.51193878 C12.3533949,7.78379392 10.8006446,9.50940539 10.7317073,11.5907755 C10.7317073,13.5961224 11.9014634,15.7388367 15.1821463,15.7388367 C17.5806829,15.7388367 18.0850732,17.1384694 18.0850732,18.3142041 C17.9856402,19.8256915 16.6966405,20.9742833 15.1960976,20.8884898 C14.0421765,20.9189054 12.9793169,20.2596154 12.4863415,19.2076327 C12.3136288,18.8159238 11.8617754,18.6354081 11.4697004,18.801484 C11.0776254,18.96756 10.8893737,19.4192127 11.0461463,19.8176735 C11.6501306,21.2005034 12.9183592,22.1721533 14.4019512,22.3887143 L14.4019512,23.5233469 C14.3999462,23.732921 14.4811461,23.9346069 14.6274777,24.0835144 C14.7738093,24.2324218 14.973129,24.3161837 15.1810732,24.3161837 L15.1810732,24.3161837 Z" id="Path_1572"></path>
                    </g>
                </g>
            </g>
        </g>
    </g>
</svg>