<?xml version="1.0" encoding="UTF-8"?>
<svg width="35px" height="37px" viewBox="0 0 35 37" version="1.1" xmlns="http://www.w3.org/2000/svg" xmlns:xlink="http://www.w3.org/1999/xlink">
    <title>Finger icon@3x</title>
    <defs>
        <filter id="filter-1">
            <feColorMatrix in="SourceGraphic" type="matrix" values="0 0 0 0 1.000000 0 0 0 0 1.000000 0 0 0 0 1.000000 0 0 0 1.000000 0"></feColorMatrix>
        </filter>
    </defs>
    <g id="2.-Home" stroke="none" stroke-width="1" fill="none" fill-rule="evenodd" opacity="0.07" stroke-linecap="round" stroke-linejoin="round">
        <g id="2.0-Home" transform="translate(-294.000000, -754.000000)">
            <g id="IEBS-Block" transform="translate(31.000000, 598.000000)">
                <g id="Saving" transform="translate(160.000000, 147.000000)">
                    <g id="Finger-icon" transform="translate(103.000000, 9.000000)" filter="url(#filter-1)">
                        <g id="saving" stroke="#000000">
                            <path d="M17.6657895,36.11015 C18.8637668,31.2514825 19.7139215,26.3129306 20.2097368,21.33235" id="Path_17067"></path>
                            <path d="M14.1621053,30.58235 C13.7936842,32.412 13.4105263,34.09735 13.0844737,35.43305" id="Path_17068"></path>
                            <path d="M20.3994737,17.63235 C20.3994737,17.51025 20.4105263,17.3826 20.4105263,17.26235 C20.4105263,15.9851915 19.379603,14.94985 18.1078947,14.94985 C16.8361864,14.94985 15.8052632,15.9851915 15.8052632,17.26235 C15.745644,20.4893319 15.4283988,23.7063131 14.8565789,26.88235" id="Path_17069"></path>
                            <path d="M33.2389474,28.4752 C33.8477594,24.7367097 34.1771878,20.9577109 34.2244741,17.16985 C34.225383,13.0652303 32.6665221,9.11498342 29.8660526,6.12535" id="Path_17070"></path>
                            <path d="M2.31184211,13.93235 C2.0962298,14.9979113 1.98761567,16.0825098 1.98763158,17.16985 C1.90600817,19.9089923 1.60228396,22.6369012 1.07947368,25.3265" id="Path_17071"></path>
                            <path d="M27.0605263,3.7111 C23.1687152,1.09571316 18.335748,0.312051267 13.8221115,1.56450126 C9.30847492,2.81695125 5.56168683,5.98133527 3.55894737,10.23235" id="Path_17072"></path>
                            <path d="M10.4742105,25.03235 C9.975,28.22915 9.30815789,31.32235 8.75921053,33.63115" id="Path_17073"></path>
                            <path d="M21.49,11.15735 C20.4613357,10.5586585 19.2949487,10.2398273 18.1060526,10.23235 C14.2909277,10.23235 11.1981579,13.3383745 11.1981579,17.16985 C11.1890335,18.5604405 11.1103378,19.9496921 10.9623684,21.33235" id="Path_17074"></path>
                            <path d="M22.4902632,35.5977 C23.9642626,29.5593525 24.8100248,23.3836279 25.0139474,17.16985 C25.006502,15.9758587 24.6890314,14.8044729 24.0928947,13.7714" id="Path_17075"></path>
                            <path d="M9.17184211,9.8864 C7.50174498,11.9429902 6.59067351,14.5160336 6.59289474,17.16985 C6.41011159,21.6837839 5.78945511,26.1690599 4.73973684,30.562" id="Path_17076"></path>
                            <path d="M29.4515789,21.33235 C29.5584211,19.9208 29.6192134,18.5222 29.6192134,17.16985 C29.6221646,12.9509478 27.3343016,9.06610732 23.6514644,7.0364892 C19.9686273,5.00687108 15.4768703,5.15545079 11.935,7.42405" id="Path_17077"></path>
                            <path d="M27.6628947,33.5035 C28.1897368,30.9135 28.7018421,28.00345 29.0721053,25.03235" id="Path_17078"></path>
                        </g>
                    </g>
                </g>
            </g>
        </g>
    </g>
</svg>